<?xml version="1.0" encoding="UTF-8" standalone="no"?>
<!DOCTYPE svg PUBLIC "-//W3C//DTD SVG 20010904//EN" "http://www.w3.org/TR/2001/REC-SVG-20010904/DTD/svg10.dtd">
<svg version="1.0" xmlns="http://www.w3.org/2000/svg"
 width="40" height="40" viewBox="0 0 264 264"
 preserveAspectRatio="xMidYMid meet">
<rect width="100%" height="100%" fill="#fff"/>
<g transform="translate(0.000000,264.000000) scale(0.100000,-0.100000)"
fill="#081424" background="#fff" stroke="none">
<path fill="#081424" d="M0 1320 l0 -1320 1320 0 1320 0 0 1320 0 1320 -1320 0 -1320 0 0
-1320z m2380 0 l0 -1060 -1060 0 -1060 0 0 1060 0 1060 1060 0 1060 0 0 -1060z"/>
<path fill="#081424" d="M852 1818 c-17 -17 -17 -299 0 -316 8 -8 56 -12 150 -12 l138 0 0
-363 c0 -312 2 -366 16 -385 15 -21 21 -22 193 -22 124 0 181 4 189 12 9 9 12
108 12 385 l0 373 145 0 c132 0 145 2 155 19 15 28 13 294 -2 309 -17 17 -979
17 -996 0z"/>
</g>
</svg>
